<?xml version="1.0" encoding="utf-8"?>
<svg xmlns="http://www.w3.org/2000/svg" xmlns:svg="http://www.w3.org/2000/svg" width="432.793" height="65" viewBox="0 0 114.5098 17.197916" version="1.1" xml:space="preserve" id="sid1"><defs/><g transform="translate(-42.304221,-37.852165)"><path fill="#4f46e5" fill-rule="evenodd" d="m 44.420887,39.968832 h 8.466667 a 2.1166667,2.1166667 0 0 1 2.11667,2.11666 v 9.525 a 2.1166667,2.1166667 0 0 1 -2.11667,2.11667 h -8.466667 a 2.1166667,2.1166667 0 0 1 -2.116666,-2.11667 v -9.525 a 2.1166667,2.1166667 0 0 1 2.116666,-2.11666 z m 1.058334,2.48047 a 0.79375,0.79375 0 0 0 0,1.5875 h 6.350003 a 0.79375,0.79375 0 0 0 0,-1.5875 z m 0,3.43958 a 0.79375,0.79375 0 0 0 0,1.5875 h 4.762503 a 0.79375,0.79375 0 0 0 0,-1.5875 z m 0.264583,3.20807 a 1.058335,1.058335 0 1 0 0,2.11667 1.058335,1.058335 0 0 0 0,-2.11667 z" style="stroke-width:0.264583"/><g transform="translate(-1.2318656)"><path style="fill:#4f46e5" d="m 153.28243,48.371412 q 0.0455,0.818557 0.55139,1.267627 0.5116,0.443385 1.39269,0.443385 0.66507,0 1.44953,-0.352434 0.78445,-0.358119 0.94929,-0.358119 0.17054,0 0.28423,0.108004 0.11368,0.108004 0.11368,0.267168 0,0.164848 -0.11937,0.301274 -0.11937,0.136426 -0.38086,0.267168 -0.56844,0.278537 -1.17667,0.426332 -0.60255,0.147795 -1.19941,0.147795 -1.29605,0 -2.07482,-0.74466 -0.77877,-0.750343 -0.77877,-1.983863 0,-1.256258 0.82425,-2.035024 0.82424,-0.778766 2.14871,-0.778766 1.19941,0 1.98955,0.727606 0.79013,0.727606 0.79013,1.762171 0,0.318328 -0.13642,0.426332 -0.13075,0.108004 -0.72193,0.108004 h -0.0853 z m 0.0284,-0.744659 h 3.70056 q -0.0853,-0.676447 -0.56845,-1.085725 -0.47749,-0.414963 -1.17667,-0.414963 -0.75603,0 -1.27331,0.39791 -0.51729,0.397909 -0.68213,1.102778 z"/><path style="fill:#4f46e5" d="m 147.43881,46.336389 q -0.74466,0 -1.21646,0.460438 -0.47181,0.460438 -0.47181,1.193729 0,0.721922 0.47181,1.188044 0.4718,0.460439 1.21646,0.460439 0.73898,0 1.21079,-0.460439 0.47749,-0.466122 0.47749,-1.188044 0,-0.721922 -0.47749,-1.188045 -0.47181,-0.466122 -1.21079,-0.466122 z m 2.46704,4.109838 q 0,0.795819 -0.0796,1.125516 -0.0796,0.335381 -0.27285,0.585495 -0.31833,0.420648 -0.89246,0.636656 -0.57412,0.221692 -1.35289,0.221692 -0.64802,0 -0.9493,-0.125057 -0.29559,-0.125057 -0.29559,-0.39791 0,-0.176217 0.14211,-0.312643 0.1478,-0.130742 0.34675,-0.130742 0.15348,0 0.47181,0.03979 0.31833,0.04548 0.48318,0.04548 0.84129,0 1.19372,-0.386541 0.35244,-0.386541 0.35244,-1.324471 v -0.687815 q -0.34675,0.403594 -0.7674,0.59118 -0.42065,0.187586 -0.96635,0.187586 -1.06299,0 -1.76217,-0.704869 -0.6935,-0.710553 -0.6935,-1.796277 0,-1.09141 0.71624,-1.807647 0.71623,-0.721922 1.77354,-0.721922 0.4377,0 0.85266,0.164848 0.42065,0.159164 0.84698,0.488861 v -0.409279 q 0,-0.119373 0.0739,-0.176217 0.0796,-0.05684 0.24443,-0.05684 h 0.85834 q 0.22738,0 0.34107,0.102319 0.11369,0.09664 0.11369,0.295591 0,0.227376 -0.14211,0.318327 -0.14211,0.09095 -0.53434,0.09095 h -0.10232 z"/><path style="fill:#4f46e5" d="m 140.0753,49.945998 h 1.88723 q 0.22169,0 0.32401,0.09663 0.10801,0.09095 0.10801,0.29559 0,0.233061 -0.10232,0.324012 -0.0966,0.08527 -0.3638,0.08527 h -3.71762 q -0.22169,0 -0.33538,-0.102319 -0.11369,-0.10232 -0.11369,-0.306959 0,-0.198955 0.11369,-0.29559 0.11937,-0.09663 0.3638,-0.09663 h 0.98909 v -3.643716 h -0.38654 q -0.55139,0 -0.68781,-0.08527 -0.13643,-0.09095 -0.13643,-0.324012 0,-0.198955 0.10801,-0.295591 0.11368,-0.102319 0.34106,-0.102319 h 1.29605 q 0.15348,0 0.23306,0.06253 0.0796,0.05684 0.0796,0.170532 v 0.966352 q 0.54002,-0.676446 1.12552,-1.006143 0.58549,-0.329696 1.26194,-0.329696 0.50591,0 0.81856,0.204639 0.31264,0.204639 0.31264,0.528651 0,0.210324 -0.15916,0.375172 -0.15348,0.159164 -0.34107,0.159164 -0.13074,0 -0.44338,-0.170533 -0.30696,-0.176217 -0.55139,-0.176217 -0.44339,0 -0.93793,0.318328 -0.48886,0.312643 -1.08573,0.994774 z"/><path style="fill:#4f46e5" d="m 131.51826,48.371412 q 0.0455,0.818557 0.55139,1.267627 0.5116,0.443385 1.39268,0.443385 0.66508,0 1.44953,-0.352434 0.78445,-0.358119 0.9493,-0.358119 0.17053,0 0.28422,0.108004 0.11369,0.108004 0.11369,0.267168 0,0.164848 -0.11937,0.301274 -0.11938,0.136426 -0.38086,0.267168 -0.56844,0.278537 -1.17668,0.426332 -0.60255,0.147795 -1.19941,0.147795 -1.29605,0 -2.07482,-0.74466 -0.77876,-0.750343 -0.77876,-1.983863 0,-1.256258 0.82424,-2.035024 0.82424,-0.778766 2.14871,-0.778766 1.19942,0 1.98955,0.727606 0.79014,0.727606 0.79014,1.762171 0,0.318328 -0.13643,0.426332 -0.13074,0.108004 -0.72192,0.108004 h -0.0853 z m 0.0284,-0.744659 h 3.70056 q -0.0853,-0.676447 -0.56844,-1.085725 -0.47749,-0.414963 -1.17668,-0.414963 -0.75603,0 -1.27331,0.39791 -0.51728,0.397909 -0.68213,1.102778 z"/><path style="fill:#4f46e5" d="m 126.933,49.945998 h 1.8247 q 0.2217,0 0.32402,0.09663 0.108,0.09095 0.108,0.29559 0,0.233061 -0.10232,0.324012 -0.0966,0.08527 -0.3638,0.08527 h -4.41111 q -0.22738,0 -0.34107,-0.102319 -0.11369,-0.10232 -0.11369,-0.306959 0,-0.198955 0.11937,-0.29559 0.11938,-0.09663 0.35812,-0.09663 h 1.73375 v -3.643716 h -1.10846 q -0.23306,0 -0.35812,-0.10232 -0.11937,-0.108004 -0.11937,-0.306958 0,-0.198955 0.11369,-0.295591 0.11369,-0.102319 0.34106,-0.102319 h 1.66554 q 0.15348,0 0.23874,0.06253 0.091,0.06253 0.091,0.170532 z"/><path style="fill:#4f46e5" d="m 125.88139,43.85798 q 0,-0.613918 0.108,-0.773082 0.11369,-0.159164 0.47749,-0.159164 0.35244,0 0.46612,0.136426 0.11369,0.130742 0.11369,0.630972 0,0.48886 -0.108,0.608233 -0.10232,0.113688 -0.47181,0.113688 -0.3638,0 -0.47749,-0.108004 -0.108,-0.108004 -0.108,-0.449069 z"/><path style="fill:#4f46e5" d="m 121.47931,45.836159 v -0.02274 q 0,-0.187586 0.108,-0.272853 0.10801,-0.09095 0.33538,-0.09095 0.23306,0 0.31833,0.136427 0.0909,0.136426 0.0909,0.562758 v 1.057302 q 0,0.210324 -0.108,0.318328 -0.10801,0.10232 -0.32401,0.10232 -0.15348,0 -0.26717,-0.08527 -0.10801,-0.09095 -0.26717,-0.369487 -0.27285,-0.460438 -0.66508,-0.6935 -0.38654,-0.238746 -0.89245,-0.238746 -0.88677,0 -1.44385,0.522967 -0.55138,0.522967 -0.55138,1.352893 0,0.846979 0.52865,1.387 0.53433,0.534335 1.36994,0.534335 0.38086,0 0.72192,-0.102319 0.34675,-0.108004 0.65371,-0.318328 0.10801,-0.06821 0.28991,-0.210324 0.36949,-0.301274 0.57981,-0.301274 0.17622,0 0.28422,0.113688 0.11369,0.108004 0.11369,0.284222 0,0.449069 -0.85266,0.920876 -0.84698,0.466123 -1.80197,0.466123 -1.23352,0 -2.05776,-0.790135 -0.81855,-0.790135 -0.81855,-1.972495 0,-1.18236 0.81855,-1.972495 0.81856,-0.795819 2.0464,-0.795819 0.43201,0 0.86403,0.119373 0.4377,0.113688 0.92656,0.358118 z"/><path style="fill:#4f46e5" d="m 110.56758,49.945998 v -3.643716 h -0.108 q -0.38654,0 -0.53433,-0.09095 -0.14212,-0.09095 -0.14212,-0.318327 0,-0.210324 0.11938,-0.301275 0.11937,-0.09663 0.38654,-0.09663 h 0.26717 0.5457 q 0.15348,0 0.23875,0.06253 0.0853,0.06253 0.0853,0.170532 v 0.386541 q 0.41497,-0.386541 0.81856,-0.568442 0.40928,-0.187586 0.84698,-0.187586 0.85835,0 1.34721,0.534336 0.49454,0.534335 0.49454,1.47795 v 2.575044 h 0.26717 q 0.28422,0 0.40928,0.09663 0.12506,0.09095 0.12506,0.29559 0,0.221692 -0.13643,0.318328 -0.13074,0.09095 -0.47181,0.09095 h -1.25625 q -0.36381,0 -0.46613,-0.08527 -0.10232,-0.08527 -0.10232,-0.324012 0,-0.221693 0.11938,-0.306959 0.11937,-0.08527 0.44907,-0.08527 h 0.19895 v -2.364721 q 0,-0.665077 -0.30127,-1.011827 -0.30128,-0.352434 -0.87541,-0.352434 -0.57981,0 -1.02319,0.392225 -0.44339,0.392225 -0.44339,0.972036 v 2.364721 h 0.19896 q 0.34106,0 0.46044,0.08527 0.11937,0.08527 0.11937,0.306959 0,0.238746 -0.10232,0.324012 -0.10232,0.08527 -0.50023,0.08527 h -1.03457 -0.30695 q -0.23307,0 -0.35244,-0.09663 -0.11369,-0.102319 -0.11369,-0.312643 0,-0.227377 0.13075,-0.306959 0.13642,-0.08527 0.52296,-0.08527 z"/><path style="fill:#4f46e5" d="m 105.59608,50.093793 q 0.87541,0 1.43248,-0.551389 0.56276,-0.557074 0.56276,-1.415422 0,-0.858348 -0.56276,-1.415421 -0.56276,-0.562758 -1.43248,-0.562758 -0.86971,0 -1.43247,0.562758 -0.55707,0.557073 -0.55707,1.415421 0,0.864032 0.55707,1.415422 0.55707,0.551389 1.43247,0.551389 z m 2.98433,-1.966811 q 0,1.216467 -0.82993,1.989548 -0.82993,0.773082 -2.1544,0.773082 -1.31878,0 -2.14871,-0.773082 -0.82992,-0.773081 -0.82992,-1.989548 0,-1.216467 0.82992,-1.983864 0.82993,-0.773081 2.14871,-0.773081 1.31879,0 2.14872,0.773081 0.83561,0.773082 0.83561,1.983864 z"/><path style="fill:#4f46e5" d="m 100.66342,44.193361 q 0.0568,-0.15348 0.15916,-0.216008 0.10232,-0.06253 0.29559,-0.06253 0.21032,0 0.29559,0.10232 0.0853,0.102319 0.0853,0.420647 0,0.557074 0.0114,1.04025 0.0114,0.477491 0.0114,0.414963 0,0.267167 -0.091,0.363803 -0.0909,0.09095 -0.32401,0.09095 -0.37517,0 -0.48886,-0.534335 -0.0398,-0.159164 -0.0625,-0.244431 -0.108,-0.426331 -0.51728,-0.693499 -0.40928,-0.272853 -0.960669,-0.272853 -1.006143,0 -1.614376,0.738975 -0.608233,0.733291 -0.608233,1.972495 0,1.239205 0.613917,1.97818 0.619603,0.733291 1.63143,0.733291 0.329697,0 0.670762,-0.09095 0.341069,-0.09663 0.670759,-0.284221 0.15348,-0.07958 0.42065,-0.267168 0.26717,-0.193271 0.38086,-0.193271 0.17621,0 0.29559,0.119373 0.12505,0.113689 0.12505,0.284221 0,0.170533 -0.13642,0.329697 -0.13074,0.153479 -0.49455,0.380856 -0.47749,0.312644 -0.96066,0.460439 -0.483181,0.147795 -1.017516,0.147795 -1.404053,0 -2.319245,-0.98909 -0.915192,-0.994774 -0.915192,-2.540937 0,-1.52911 0.926561,-2.540938 0.926561,-1.011827 2.330613,-1.011827 0.375172,0 0.761713,0.09095 0.392226,0.09095 0.824246,0.272853 z"/></g><g transform="translate(0.3736925)"><path style="fill:#4f46e5" d="m 87.785362,47.581277 q 0,-0.801503 -0.147795,-1.08004 -0.142111,-0.284221 -0.494545,-0.284221 -0.420647,0 -0.670762,0.363803 -0.24443,0.363803 -0.24443,1.000458 v 2.364721 h 0.10232 q 0.346749,0 0.460438,0.08527 0.119373,0.07958 0.119373,0.306959 0,0.204639 -0.09664,0.306959 -0.09664,0.102319 -0.29559,0.102319 h -0.721922 q -0.244431,0 -0.335381,-0.113688 -0.08527,-0.113689 -0.08527,-0.488861 v -0.164848 -2.398827 -0.443385 q 0,-0.426331 -0.19327,-0.670762 -0.19327,-0.250114 -0.528651,-0.250114 -0.2558,0 -0.471808,0.153479 -0.210323,0.147795 -0.363803,0.443385 v 3.132118 h 0.210324 q 0.341065,0 0.460438,0.08527 0.119373,0.08527 0.119373,0.306959 0,0.233061 -0.09663,0.324012 -0.09664,0.08527 -0.369488,0.08527 h -1.512056 q -0.221693,0 -0.329697,-0.09663 -0.10232,-0.102319 -0.10232,-0.312643 0,-0.227377 0.130742,-0.306959 0.136426,-0.08527 0.522967,-0.08527 h 0.113689 v -3.643716 h -0.10232 q -0.39791,0 -0.545705,-0.09095 -0.14211,-0.09095 -0.14211,-0.318327 0,-0.198955 0.113688,-0.295591 0.113689,-0.102319 0.341066,-0.102319 h 0.869717 q 0.187585,0 0.24443,0.06821 0.06253,0.06253 0.0739,0.272852 0.233062,-0.250114 0.50023,-0.369487 0.267167,-0.119373 0.602548,-0.119373 0.39791,0 0.653709,0.176217 0.261484,0.170533 0.386541,0.522967 0.238746,-0.358119 0.551389,-0.528651 0.312643,-0.170533 0.716237,-0.170533 0.733291,0 1.068672,0.477491 0.341066,0.477492 0.341066,1.546164 v 2.575044 h 0.09095 q 0.352435,0 0.471808,0.08527 0.119372,0.08527 0.119372,0.306959 0,0.204639 -0.102319,0.306959 -0.10232,0.102319 -0.301275,0.102319 h -0.687815 q -0.227377,0 -0.335381,-0.136426 -0.108004,-0.136426 -0.108004,-0.432016 z"/><path style="fill:#4f46e5" d="m 76.929198,49.945998 h 1.887229 q 0.221692,0 0.324012,0.09663 0.108004,0.09095 0.108004,0.29559 0,0.233061 -0.10232,0.324012 -0.09664,0.08527 -0.363803,0.08527 h -3.717613 q -0.221693,0 -0.335381,-0.102319 -0.113689,-0.10232 -0.113689,-0.306959 0,-0.198955 0.113689,-0.29559 0.119373,-0.09663 0.363803,-0.09663 h 0.98909 v -3.643716 h -0.386541 q -0.551389,0 -0.687815,-0.08527 -0.136427,-0.09095 -0.136427,-0.324012 0,-0.198955 0.108005,-0.295591 0.113688,-0.102319 0.341065,-0.102319 h 1.296049 q 0.153479,0 0.233061,0.06253 0.07958,0.05684 0.07958,0.170532 v 0.966352 q 0.54002,-0.676446 1.125516,-1.006143 0.585495,-0.329696 1.261942,-0.329696 0.505914,0 0.818557,0.204639 0.312643,0.204639 0.312643,0.528651 0,0.210324 -0.159164,0.375172 -0.153479,0.159164 -0.341065,0.159164 -0.130742,0 -0.443385,-0.170533 -0.306959,-0.176217 -0.551389,-0.176217 -0.443385,0 -0.93793,0.318328 -0.488861,0.312643 -1.085725,0.994774 z"/><path style="fill:#4f46e5" d="m 70.560456,50.093793 q 0.875402,0 1.432475,-0.551389 0.562758,-0.557074 0.562758,-1.415422 0,-0.858348 -0.562758,-1.415421 -0.562758,-0.562758 -1.432475,-0.562758 -0.869716,0 -1.432474,0.562758 -0.557074,0.557073 -0.557074,1.415421 0,0.864032 0.557074,1.415422 0.557073,0.551389 1.432474,0.551389 z m 2.984323,-1.966811 q 0,1.216467 -0.829926,1.989548 -0.829926,0.773082 -2.154397,0.773082 -1.318786,0 -2.148712,-0.773082 -0.829926,-0.773081 -0.829926,-1.989548 0,-1.216467 0.829926,-1.983864 0.829926,-0.773081 2.148712,-0.773081 1.318787,0 2.148713,0.773081 0.83561,0.773082 0.83561,1.983864 z"/><path style="fill:#4f46e5" d="m 63.890876,49.945998 h 0.221693 q 0.238745,0 0.346749,0.09663 0.108005,0.09095 0.108005,0.29559 0,0.198955 -0.10232,0.306959 -0.10232,0.102319 -0.29559,0.102319 h -2.802421 q -0.19327,0 -0.29559,-0.102319 -0.10232,-0.108004 -0.10232,-0.306959 0,-0.210324 0.108004,-0.301275 0.113689,-0.09095 0.380857,-0.09095 h 0.187586 0.358118 v -5.121666 h -0.358118 q -0.432016,0 -0.557074,-0.08527 -0.119373,-0.09095 -0.119373,-0.324012 0,-0.198954 0.10232,-0.301274 0.10232,-0.108004 0.29559,-0.108004 h 5.030715 q 0.19327,0 0.289906,0.119373 0.102319,0.113688 0.102319,0.335381 v 1.466581 q 0,0.198955 -0.102319,0.301275 -0.09664,0.09663 -0.289906,0.09663 -0.238746,0 -0.324012,-0.125058 -0.08527,-0.125057 -0.08527,-0.562758 v -0.812872 h -3.086642 v 1.915651 h 1.500688 v -0.147795 q 0,-0.414963 0.07958,-0.557074 0.07958,-0.14211 0.284221,-0.14211 0.181902,0 0.261484,0.108004 0.08527,0.108004 0.08527,0.346749 v 1.443844 q 0,0.284221 -0.07958,0.392225 -0.0739,0.108004 -0.267168,0.108004 -0.204639,0 -0.284221,-0.14211 -0.07958,-0.142111 -0.07958,-0.557074 v -0.164848 h -1.500688 v 2.5182 z"/></g></g></svg>
